<?xml version="1.0"?>
<svg xmlns="http://www.w3.org/2000/svg" viewBox="0 0 512 512" width="512px" height="512px"><g><path d="m448.453125 87.261719c-40.546875-46.230469-96.242187-76.347657-156.828125-84.796875-4.09375-.566406-7.894531 2.289062-8.464844 6.394531-.570312 4.101563 2.289063 7.890625 6.390625 8.460937 57.023438 7.953126 109.453125 36.304688 147.625 79.832032 38.523438 43.929687 59.742188 100.34375 59.742188 158.847656 0 64.375-25.0625 124.894531-70.574219 170.414062-45.511719 45.519532-106.023438 70.585938-170.382812 70.585938-64.335938 0-124.828126-25.050781-170.332032-70.53125-2.929687-2.929688-7.679687-2.929688-10.605468 0-2.929688 2.929688-2.925782 7.679688.003906 10.605469 48.335937 48.316406 112.59375 74.925781 180.933594 74.925781 68.367187 0 132.644531-26.628906 180.988281-74.980469 48.34375-48.351562 74.96875-112.640625 74.96875-181.019531 0-62.144531-22.539063-122.070312-63.464844-168.738281zm0 0" data-original="#000000" class="active-path" data-old_color="#000000" fill="#8E8682"/><path d="m15 256c0-64.375 25.0625-124.894531 70.574219-170.414062 45.511719-45.519532 106.023437-70.585938 170.386719-70.585938 4.140624 0 7.5-3.359375 7.5-7.5s-3.359376-7.5-7.5-7.5c-68.371094 0-132.648438 26.628906-180.992188 74.980469-48.34375 48.351562-74.96875 112.640625-74.96875 181.019531 0 57.066406 18.367188 111.0625 53.113281 156.148438 1.476563 1.917968 3.699219 2.921874 5.945313 2.921874 1.597656 0 3.207031-.507812 4.570312-1.558593 3.28125-2.527344 3.890625-7.238281 1.363282-10.519531-32.707032-42.4375-49.992188-93.269532-49.992188-146.992188zm0 0" data-original="#000000" class="active-path" data-old_color="#000000" fill="#8E8682"/><path d="m255.9375 121.90625c-23.917969 0-43.378906 19.460938-43.378906 43.386719v79.714843l-7.265625-7.265624c-8.191407-8.195313-19.085938-12.710938-30.675781-12.710938-11.585938 0-22.476563 4.515625-30.671876 12.710938-16.914062 16.914062-16.914062 44.4375 0 61.351562l76.441407 76.457031c9.375 9.375 21.84375 14.542969 35.101562 14.542969 13.265625 0 25.730469-5.167969 35.105469-14.542969l30.9375-30.941406c2.929688-2.929687 2.929688-7.679687 0-10.605469-2.929688-2.929687-7.675781-2.933594-10.605469 0l-30.9375 30.941406c-6.542969 6.542969-15.246093 10.148438-24.5 10.148438-9.25 0-17.953125-3.605469-24.496093-10.148438l-76.441407-76.457031c-11.0625-11.066406-11.0625-29.074219 0-40.140625 5.359375-5.363281 12.488281-8.316406 20.066407-8.316406 7.582031 0 14.707031 2.953125 20.066406 8.316406l20.070312 20.070313c2.140625 2.144531 5.367188 2.785156 8.171875 1.625 2.804688-1.160157 4.628907-3.894531 4.628907-6.929688v-97.824219c0-15.648437 12.730468-28.382812 28.378906-28.382812 15.652344 0 28.378906 12.730469 28.378906 28.382812v96.933594c0 3.035156 1.828125 5.769532 4.632812 6.929688 2.804688 1.164062 6.027344.519531 8.171876-1.625l20.144531-20.148438c5.339843-5.339844 12.441406-8.28125 19.992187-8.28125 7.550782 0 14.648438 2.941406 20 8.292969l.144532.140625c11.023437 11.027344 11.019531 28.964844-.003907 39.992188l-22.523437 22.53125c-2.929688 2.929687-2.929688 7.675781 0 10.605468 2.929687 2.929688 7.679687 2.929688 10.605468 0l22.527344-22.53125c16.871094-16.875 16.871094-44.328125-.007812-61.210937l-.144532-.144531c-8.175781-8.171876-19.039062-12.675782-30.597656-12.675782-11.5625 0-22.425781 4.503906-30.601562 12.675782l-7.339844 7.34375v-78.828126c.003906-23.921874-19.457031-43.382812-43.375-43.382812zm0 0" data-original="#000000" class="active-path" data-old_color="#000000" fill="#8E8682"/></g> </svg>
