<svg id="line" height="512" viewBox="0 0 24 24" width="512" xmlns="http://www.w3.org/2000/svg"><g fill="rgb(0,0,0)"><path fill="#ffffff" d="m11.293 17.707c.0092.0092.0215.0118.0309.0206a.9865.9865 0 0 0 .2933.1962l.0031.0006a.9994.9994 0 0 0 1.0867-.2174l5-5a1 1 0 0 0 -1.414-1.414l-3.293 3.2929v-11.5859a1 1 0 0 0 -2 0v11.5859l-3.293-3.2929a1 1 0 0 0 -1.414 1.414z"/><path fill="#ffffff" d="m20 16v3a1.001 1.001 0 0 1 -1 1h-14a1.0013 1.0013 0 0 1 -1-1v-3a1 1 0 0 0 -2 0v3a3.0033 3.0033 0 0 0 3 3h14a3.0033 3.0033 0 0 0 3-3v-3a1 1 0 0 0 -2 0z"/></g></svg>