<?xml version="1.0" encoding="UTF-8"?>
<!DOCTYPE svg PUBLIC "-//W3C//DTD SVG 1.1//EN" "http://www.w3.org/Graphics/SVG/1.1/DTD/svg11.dtd">
<!-- Creator: CorelDRAW 2018 (64-Bit Evaluation Version) -->
<svg xmlns="http://www.w3.org/2000/svg" xml:space="preserve" width="70.7071mm" height="100mm" version="1.1" style="shape-rendering:geometricPrecision; text-rendering:geometricPrecision; image-rendering:optimizeQuality; fill-rule:evenodd; clip-rule:evenodd"
viewBox="0 0 7070.71 10000"
 xmlns:xlink="http://www.w3.org/1999/xlink">
 <defs>
  <style type="text/css">
   <![CDATA[
    .fil0 {fill:#000032}
    .fil1 {fill:#99CC00}
    .fil2 {fill:#A0BADF}
   ]]>
  </style>
 </defs>
 <g id="Layer_x0020_1">
  <metadata id="CorelCorpID_0Corel-Layer"/>
  <path class="fil0" d="M1770.95 5089.53c-67.61,-0.09 -120.11,-27.84 -157.59,-82.99 -32.08,-48.79 -48.17,-109.51 -47.99,-182.25 0.09,-31.55 3.71,-62.66 11.05,-92.98 21.21,-89.53 61.69,-166.6 121.18,-231.39 68.85,-76.19 146.19,-113.22 232.36,-110.84 82.46,2.56 146.72,23.87 193.21,64.08l-52.94 63.37c-40.84,-31.02 -89.62,-46.67 -146.1,-46.85 -68.32,-0.18 -126.3,39.95 -173.94,120.38 -43.04,73.27 -64.61,152.46 -64.88,237.75 -0.18,52.41 9.63,94.39 29.08,126.21 21.04,35.18 51.18,52.86 90.86,52.94 43.04,0.09 90.42,-12.46 141.86,-37.3 16.44,-7.87 39.6,-19.71 69.21,-35.09l25.28 62.66c-92.98,61.88 -183.13,92.46 -270.63,92.28l0 0zm746.58 -3.09l-24.84 -205.32 -238.37 -0.71 -119.85 204.88 -81.67 -0.18 390.57 -668.89 96.25 -28.64 83.79 699.21 -105.89 -0.35 0 0zm-65.23 -544.44l-155.29 266.3 187.55 0.53 -32.26 -266.83 0 0zm664.82 546.12l134.88 -536.14 -486.38 535.16 -75.48 -0.18 144.95 -671.63 81.85 -25.54 -121.53 537.81 485.4 -521.82 75.39 0.27 -147.16 682.33 -91.92 -0.27 0 0zm-96.78 -720.33l-40.04 -53.92 258.7 -136.73 22.01 83.35 -240.67 107.3 0 0zm653.07 112.95l-130.99 608.61 -98.64 -0.27 130.9 -608.61 -203.11 -0.62 50.91 -73.8 460.57 1.33 -15.73 73.89 -193.91 -0.53 0 0zm382.43 619.39c-74.86,-0.18 -132.66,-28.11 -173.59,-83.79 -35.62,-48.97 -53.3,-111.63 -53.12,-187.73 0.09,-30.32 3.18,-60.28 9.46,-89.89 19.62,-91.74 62.13,-170.67 127.8,-237.05 71.5,-72.47 152.11,-108.62 241.73,-108.36 74.77,0.18 132.58,26.16 173.59,77.96 36.86,46.67 55.42,107.03 55.24,181.19 -0.09,28.99 -3.36,58.25 -9.55,87.86 -19.89,91.57 -62.13,172.17 -126.83,242.08 -72.92,78.66 -154.59,117.99 -244.74,117.72l0 0zm133.99 -625.14c-57.36,-0.18 -109.33,27.93 -155.82,84.32 -41.98,49.85 -70.35,109.42 -85.38,178.71 -6.28,30.32 -9.37,59.93 -9.46,88.92 -0.18,55.77 10.52,100.58 32.08,134.52 24.04,37.56 57.89,56.48 101.64,56.57 71.5,0.18 132.84,-42.69 184.37,-128.87 45.43,-75.92 68.23,-152.99 68.41,-230.77 0.09,-52.76 -10.34,-95.28 -31.2,-127.8 -24.57,-37.04 -59.57,-55.51 -104.65,-55.6l0 0z"/>
  <path class="fil1" d="M5060.15 5099.26l-0.35 102.88 -26.78 0 -49.05 -73.54 -611.97 -1.68 -37.92 73.27 -40.92 -0.09 27.31 -108.36 87.86 0.18 390.57 -668.89 96.25 -28.72 83.79 699.21 81.23 5.74 0 0zm-252.25 -550.72l-315.89 540.82 380.58 3.62 -64.7 -544.44 0 0zm531.19 236.69l-131.34 -0.35 -66.46 308.9 -98.81 -0.27 147.16 -683.56 219.37 0.62c47.81,0.09 86.44,14.23 115.61,42.16 29.17,28.11 43.75,64.08 43.66,107.83 0,12.64 -1.5,25.72 -4.33,39.15 -11.4,53.38 -38.54,97.75 -81.58,132.93 -42.78,35.27 -90.42,52.77 -143.27,52.59l0 0zm43.22 -297.5l-110.12 -0.35 -48.61 222.55 108.01 0.27c36.24,0.09 68.14,-13.08 95.72,-39.42 27.58,-26.6 41.45,-58.16 41.54,-95.01 0.09,-23.87 -7.96,-44.55 -24.31,-62.05 -16.35,-17.23 -36.95,-25.98 -62.23,-25.98l0 0zm403.56 617.27c-74.77,-0.27 -132.58,-28.11 -173.59,-83.79 -35.62,-48.97 -53.3,-111.63 -53.12,-187.64 0.09,-30.32 3.18,-60.37 9.46,-89.98 19.62,-91.74 62.22,-170.67 127.89,-236.96 71.5,-72.47 152.02,-108.62 241.64,-108.36 74.86,0.18 132.58,26.16 173.59,77.96 36.95,46.67 55.51,107.03 55.24,181.19 -0.09,28.9 -3.36,58.16 -9.63,87.86 -19.8,91.57 -62.05,172.26 -126.83,242.17 -72.83,78.48 -154.41,117.72 -244.65,117.55l0 0zm134.08 -625.14c-57.36,-0.18 -109.33,27.84 -155.82,84.23 -41.98,49.85 -70.35,109.42 -85.38,178.71 -6.28,30.32 -9.37,60.01 -9.46,88.92 -0.18,55.77 10.52,100.58 32.08,134.52 24.04,37.47 57.89,56.48 101.64,56.57 71.5,0.18 132.84,-42.78 184.46,-128.87 45.34,-75.92 68.23,-152.99 68.41,-230.77 0.18,-52.76 -10.34,-95.28 -31.2,-127.8 -24.66,-36.95 -59.75,-55.33 -104.74,-55.51l0 0zm771.06 618.51l106.41 -496.36 -290.34 479.84 -86.88 28.72 -91.83 -491.86 -103.14 478.33 -76.36 -0.18 143.98 -666.41 100.4 -31.82 112.07 548.77 323.04 -531.54 108.18 0.35 -146.8 682.41 -98.72 -0.26 0 0z"/>
  <path class="fil2" d="M1082.08 4713.02c-5.39,-71.41 -11.05,-172.35 -120.73,-250.04 -17.41,-11.93 -34.73,-17.86 -57.71,-23.87 -52.15,-17.86 -104.29,-24.22 -133.2,-18.03 -115.52,11.49 -243.23,106.15 -284.42,284.33 -23.25,112.69 5.3,219.9 62.93,273.46 11.93,-47.46 12.55,-267.36 81.85,-267.19l283.54 0.71 69.56 0.18c57.8,0.18 28.72,77.42 22.71,112.78l-5.66 6.19c-52.76,207.61 -203.81,349.73 -382.97,337.54 -219.81,-24.57 -288.75,-268.25 -247.39,-493.98 64.34,-225.64 203.55,-379.7 388.8,-397.11 23.33,0 81.14,-5.66 127.36,6.28l23.25 -82.91c-28.9,0 -57.71,-6.01 -80.69,-6.1 -249.07,-6.9 -452.17,188.88 -516.6,467.91 -70,273.2 39.24,522.88 235.72,565.04 350.26,68.14 517.13,-246.95 533.66,-515.2l0 0zm-603.48 669.86c-260.38,-89.8 -415.67,-423.27 -333.65,-761.6 93.6,-362.29 366.26,-587.31 702.03,-586.34 46.23,0.09 86.62,12.02 127.01,18.03 109.86,30.14 104.29,24.31 80.69,149.1l-17.76 130.72c138.85,89.53 207.61,273.9 201.43,380.76l121.7 0.35c57.8,0.18 40.13,83.35 34.47,119.05 -6.01,23.6 -11.93,53.38 -17.59,76.98 -111.28,457.21 -459.33,741.72 -829.84,710.78 -28.81,-6.01 -104.03,-6.19 -98.02,-59.57l29.52 -178.27 0 0z"/>
  <g id="_112266080">
  </g>
  <g id="_112273600">
  </g>
  <g id="_112269184">
  </g>
  <g id="_112278144">
  </g>
  <g id="_112269664">
  </g>
  <g id="_112273312">
  </g>
 </g>
</svg>
